<svg width="750" height="150" xmlns="http://www.w3.org/2000/svg">
 <!-- Generator: Sketch 39.1 (31720) - http://www.bohemiancoding.com/sketch -->
 <title>Combined Shape</title>
 <desc>Created with Sketch.</desc>
 <defs>
  <path id="path-1" d="m2,4.037819l7.919395,0l0,15.976279l10.226007,0l0,7.699412l-10.226007,0l0,15.97628l-7.919395,0l0,-39.651971zm37.008444,31.006783l0,-30.951787l-7.919395,0l0,39.596975l7.919395,0l0,-0.459003c0.486642,-1.673119 1.48808,-2.509667 3.004337,-2.509667c0.811968,0 1.485522,0.25835 2.020683,0.775057c0.535161,0.516707 0.802738,1.199488 0.802738,2.048364c0,1.107229 -0.415205,2.195989 -1.245627,3.266311c-0.830422,1.070321 -2.362067,2.491244 -4.594979,4.262812c-2.232913,1.771567 -4.078268,3.783003 -5.53612,6.03437c-1.457852,2.251366 -2.186767,4.594967 -2.186767,7.030872l21.701588,0l0,-6.034371l-11.958018,0c0.442892,-0.811968 1.716187,-2.048356 3.819923,-3.7092c2.952611,-2.325182 4.945594,-4.21667 5.979008,-5.674522c1.033415,-1.457852 1.550114,-3.146352 1.550114,-5.06555c0,-2.694258 -0.894997,-4.86255 -2.685018,-6.50494c-1.790021,-1.64239 -4.198209,-2.463573 -7.224636,-2.463573c-1.253026,0 -2.402101,0.119284 -3.447226,0.357852zm33.567012,-34.044602l0.316925,0c7.01464,0 13.004462,2.873424 17.969644,8.620358c3.211522,4.310201 4.817259,9.000643 4.817259,14.071468l0,0.316925c0,7.01464 -2.936808,12.97277 -8.810513,17.874566c-4.267944,3.169266 -8.947822,4.753875 -14.039775,4.753875l-0.316925,0c-6.972384,0 -12.941077,-2.852296 -17.906259,-8.556974c-1.732532,-2.42977 -2.947399,-4.658786 -3.644637,-6.687116c-0.824009,-2.535412 -1.236007,-5.017966 -1.236007,-7.447736l0,-0.316925c0,-6.88787 2.841732,-12.782615 8.525281,-17.684412c3.845375,-2.746696 7.352643,-4.289049 10.521908,-4.627104c0.971908,-0.211284 2.239595,-0.316925 3.803099,-0.316925zm-13.72285,22.755211c0,3.972146 1.552917,7.458285 4.658797,10.458523c2.767825,2.366385 5.672941,3.549559 8.715436,3.549559l0.887389,0c2.450899,0 4.944017,-0.83456 7.479429,-2.503707c2.619926,-1.922687 4.394688,-4.373549 5.324339,-7.352658c0.295798,-0.781752 0.507079,-2.123388 0.63385,-4.024947c0,-3.887632 -1.510661,-7.320951 -4.532027,-10.300061c-2.83121,-2.514284 -5.937043,-3.771407 -9.317593,-3.771407c-3.951017,0 -7.458285,1.647994 -10.521908,4.944029c-1.288835,1.690275 -2.102267,3.126987 -2.440322,4.31018c-0.591596,1.648018 -0.88739,3.211498 -0.88739,4.690489z"/>
 </defs>
 <g>
  <title>background</title>
  <rect fill="none" id="canvas_background" height="152" width="752" y="-1" x="-1"/>
 </g>
 <g>
  <title>Layer 1</title>
  <text style="cursor: move;" opacity="0.7" stroke="#000" transform="matrix(8.866666793823242,0,0,8.866666793823242,-519.200008392334,-550.666675567627) " xml:space="preserve" text-anchor="start" font-family="'Trebuchet MS', Gadget, sans-serif" font-size="14" id="svg_4" y="74.729324" x="60.834586" stroke-width="0" fill="#ffffff">o(*≧▽≦)ツ</text>
 </g>
</svg>